PathFileType	4	(X/Y/Z)	s08c0302.trc
DataRate	CameraRate	NumFrames	NumMarkers	Units	OrigDataRate	OrigDataStartFrame	OrigNumFrames
200	200	5	50	mm	200	1000	2000
Frame#	Time	racr			lacr			c7			jug			rlel			rdr			llel			ldr			s2			lic			ric			lasi			rasi			rpsi			lpsi			rgt			lgt			rth1			rth2			rth3			rth4			rlfc			rmfc			rsh1			rsh2			rsh3			rsh4			rlmal			rmmal			rcal			rtoe			rmt5			lth1			lth2			lth4			lth3			llfc			lmfc			llmal			lmmal			lcal			lmt5			lsh1			lsh2			lsh3			lsh4			ltoe			SBIKE			LBIKE			RBIKE			
		X1	Y1	Z1	X2	Y2	Z2	X3	Y3	Z3	X4	Y4	Z4	X5	Y5	Z5	X6	Y6	Z6	X7	Y7	Z7	X8	Y8	Z8	X9	Y9	Z9	X10	Y10	Z10	X11	Y11	Z11	X12	Y12	Z12	X13	Y13	Z13	X14	Y14	Z14	X15	Y15	Z15	X16	Y16	Z16	X17	Y17	Z17	X18	Y18	Z18	X19	Y19	Z19	X20	Y20	Z20	X21	Y21	Z21	X22	Y22	Z22	X23	Y23	Z23	X24	Y24	Z24	X25	Y25	Z25	X26	Y26	Z26	X27	Y27	Z27	X28	Y28	Z28	X29	Y29	Z29	X30	Y30	Z30	X31	Y31	Z31	X32	Y32	Z32	X33	Y33	Z33	X34	Y34	Z34	X35	Y35	Z35	X36	Y36	Z36	X37	Y37	Z37	X38	Y38	Z38	X39	Y39	Z39	X40	Y40	Z40	X41	Y41	Z41	X42	Y42	Z42	X43	Y43	Z43	X44	Y44	Z44	X45	Y45	Z45	X46	Y46	Z46	X47	Y47	Z47	X48	Y48	Z48	X49	Y49	Z49	X50	Y50	Z50	
1000	5.0000	804.872162	1419.389270	-91.365163	830.431517	1368.938851	-418.998725	791.875810	1452.191747	-264.008123	756.376649	1293.197660	-238.749947	728.857178	1163.840752	25.509220	801.917879	886.763425	-55.686775	691.167280	1126.349736	-529.737243	803.051078	897.335615	-431.775330	230.857781	1225.616672	-220.903307	397.071396	1181.128079	-368.803305	401.499301	1252.086495	-65.734406	412.049969	1133.017382	-327.748437	416.473109	1180.577375	-92.842397	265.698329	1269.552150	-177.599970	266.495541	1257.179062	-272.837502	319.409675	1135.701378	-13.014333	307.889157	1074.594162	-382.637828	445.301876	1006.125709	-15.818353	519.819364	958.517615	-27.772306	558.788214	881.753989	-39.189092	544.281391	982.844964	-40.056445	612.810109	788.756224	-65.122858	590.097644	789.810157	-176.897195	495.692211	741.081374	-34.796805	433.074185	679.171101	-53.985883	349.530017	656.997670	-56.913478	450.129330	657.603902	-83.564160	241.011470	605.100648	-62.132146	267.549958	606.146771	-150.027883	176.122774	654.577119	-108.423071	316.056202	389.677182	-110.332272	247.923450	453.660725	-41.659166	336.982295	947.192091	-397.571142	376.107517	869.289882	-397.510587	410.923506	876.125398	-388.863826	370.516822	780.404408	-398.024489	382.770866	656.156378	-380.575256	371.583633	629.972369	-282.409991	245.512789	260.396598	-400.069443	291.323017	283.939303	-329.208591	178.561405	253.424013	-363.224487	364.028772	143.854793	-419.821763	337.314061	535.847717	-414.207931	332.267756	450.183210	-399.387521	287.122603	374.616524	-403.094671	353.488335	445.947369	-365.434593	451.051404	156.189146	-352.144090	-145.764079	936.102626	-226.176085	9.168120	79.768639	-425.061642	9.423536	80.210848	-27.218214	
1001	5.0050	802.585746	1421.749882	-86.652471	831.582611	1372.911632	-413.652731	791.622431	1455.051223	-258.989808	754.452059	1296.038944	-235.267923	728.232735	1164.343671	26.866422	802.148477	887.167599	-55.760722	696.324138	1129.770614	-527.701832	804.308184	897.224404	-431.118820	231.241705	1224.868979	-225.393957	400.874387	1180.255475	-369.739179	398.471256	1253.886506	-67.496307	414.598017	1131.013579	-328.695825	415.379195	1182.956781	-93.653260	265.536296	1269.382670	-182.877431	267.270949	1256.167076	-277.167083	317.571608	1137.402135	-15.131923	309.290563	1073.826168	-384.120464	446.371472	1010.538604	-16.690552	522.102702	964.470847	-27.368032	562.139835	888.130635	-38.716707	545.894590	989.104085	-40.134342	618.460180	795.974200	-64.271405	596.317551	796.485750	-176.211047	501.925264	747.734675	-34.260093	440.216063	685.296700	-53.426126	356.784980	662.845306	-56.613159	457.522682	663.715407	-82.686308	248.260184	609.479267	-62.314574	274.946500	611.086349	-150.086676	182.360666	657.855459	-108.620032	327.449981	396.711967	-109.520707	257.808615	458.276447	-41.932359	335.676000	946.346546	-399.065655	373.014702	867.520985	-398.932671	407.865842	873.578485	-389.983348	365.406703	778.791873	-399.765402	374.546004	654.121598	-381.836589	362.874510	628.315019	-283.827790	237.792590	258.375203	-400.723196	283.970842	281.821066	-330.251086	171.406007	252.892262	-364.030766	354.846905	139.473999	-419.664339	328.683603	534.111671	-415.561906	323.949308	448.371064	-400.788235	278.974096	372.645693	-404.343256	345.260577	444.004617	-366.823125	441.833374	150.221240	-351.593412	-145.898192	936.060899	-226.269590	9.168228	79.742926	-425.072847	9.417864	80.233495	-27.231701	
1002	5.0100	800.438036	1423.877041	-81.902155	832.786958	1377.504388	-410.982096	791.672537	1458.245393	-254.107217	752.162435	1299.333494	-232.403778	727.799915	1164.810819	27.957352	803.547043	887.556516	-54.180561	702.371493	1133.374937	-524.709820	805.581856	896.978998	-430.289890	231.808632	1224.726021	-229.663366	404.453142	1180.120696	-370.892550	394.899672	1256.505505	-68.901562	416.928830	1130.162255	-330.099412	414.314454	1185.660751	-94.820948	265.957591	1269.494574	-185.731583	268.596275	1255.796175	-281.573877	316.559326	1139.695015	-17.224782	310.540091	1073.494395	-385.728356	447.225839	1015.170183	-17.747977	523.669928	970.064340	-27.746192	565.622176	894.864719	-37.430352	547.479762	995.285646	-39.833911	623.759566	803.412243	-62.994737	602.203187	803.153947	-175.386119	508.337416	754.048980	-33.606149	447.034962	691.194660	-52.908038	363.819525	668.132065	-56.153486	465.337345	668.898040	-82.130624	255.418999	613.040380	-62.467561	282.432337	615.307040	-150.058516	188.545166	660.423103	-108.765722	338.078048	401.108145	-111.030799	267.575776	462.227418	-42.303752	334.505916	946.045868	-400.825236	370.041085	866.484894	-400.648058	404.846805	871.546260	-391.319484	360.472756	777.962601	-401.986255	366.493923	652.879002	-383.281465	354.384634	627.771480	-285.292168	230.181839	257.076150	-401.462833	276.641421	280.209088	-331.296885	164.449452	253.266719	-364.912379	345.495541	135.579540	-419.456155	320.140561	532.926173	-417.040005	315.641125	447.287426	-402.381772	270.763956	371.493471	-405.609581	336.985565	443.224558	-368.705759	432.428044	144.597427	-351.121339	-146.018168	936.095769	-226.451838	9.167378	79.747814	-425.091644	9.401620	80.316413	-27.202789	
1003	5.0150	798.373541	1425.995898	-77.137111	839.654760	1383.711869	-413.925409	791.480860	1460.836739	-249.229643	757.858636	1300.109153	-229.713243	727.571214	1165.289597	28.919430	803.828012	888.061025	-54.417772	707.094677	1136.858167	-522.544712	807.765978	894.171659	-427.295450	232.581986	1225.009264	-233.881892	407.794996	1180.788010	-372.034984	392.011709	1258.979040	-70.567294	418.953946	1129.979147	-331.310542	413.607288	1188.620962	-96.178858	264.989888	1269.668711	-190.862689	270.049962	1255.940733	-285.720172	315.999226	1142.566933	-19.295853	311.820058	1073.568787	-387.509058	447.974441	1019.842016	-18.882655	525.250090	976.227767	-27.608910	568.464983	901.266200	-36.279521	548.572612	1001.453443	-40.408463	628.496499	810.721526	-61.693117	607.671147	809.886667	-174.670670	514.307487	760.001283	-32.878681	453.742273	696.520387	-52.289958	370.691845	672.625897	-55.755145	471.527731	674.814029	-81.188744	262.742501	615.819876	-62.487814	290.458568	618.302450	-149.528451	194.750411	662.155383	-108.996975	349.507472	405.995411	-111.403895	277.828253	465.656932	-42.457598	333.358926	946.447755	-403.132516	367.205672	865.970590	-402.629487	401.990366	870.233793	-392.888228	355.214433	777.470215	-404.483749	358.685442	652.345906	-384.922470	346.989078	627.077394	-286.716563	222.749451	256.505281	-402.194749	269.212138	279.647793	-332.066662	157.753813	254.713572	-365.752292	335.984547	132.513623	-419.430237	311.341001	532.290815	-417.539956	307.454263	447.032061	-403.994363	262.714540	371.129782	-407.050720	328.927657	442.997492	-370.453813	422.870110	139.295187	-350.624026	-146.035960	936.094027	-226.633003	9.157157	79.742897	-425.109676	9.388143	80.339043	-27.191598	
1004	5.0200	796.441059	1428.096861	-72.484190	839.963834	1387.539214	-408.925129	791.161101	1463.350153	-244.491105	755.618621	1302.681326	-226.313305	727.518827	1165.682827	29.928603	802.879028	888.638425	-57.237388	710.711795	1139.872691	-521.127256	809.258650	894.476709	-427.561739	233.581655	1225.897047	-237.754960	410.887525	1181.777189	-373.211129	389.598629	1261.720232	-72.415467	420.965683	1130.329953	-332.302908	413.611796	1191.804458	-97.593594	265.074692	1270.953877	-195.454085	271.642227	1256.514393	-289.760067	315.817163	1145.881635	-21.436527	313.146343	1074.145782	-389.476862	448.647026	1024.597598	-20.119687	526.458431	981.931690	-27.704375	570.581479	907.612795	-35.521821	549.299657	1007.353905	-41.212036	632.814907	817.732029	-60.459463	612.869909	816.362410	-173.765707	519.832383	765.526276	-32.195787	459.676693	701.433094	-51.944366	377.334994	676.398267	-55.308454	477.774731	679.626493	-80.772279	269.981220	618.041062	-62.473669	297.555114	621.118597	-149.611463	200.388112	663.002092	-109.443882	361.048089	410.358630	-111.618076	288.129711	468.423245	-42.595892	332.401556	947.299936	-405.206269	364.596125	866.128235	-404.838107	399.388745	869.620792	-394.648578	351.074522	778.082518	-407.311808	351.196333	652.579665	-386.746915	339.717180	626.911115	-287.922357	215.509473	256.805422	-402.829595	262.203536	279.635412	-332.951639	151.340490	257.096444	-366.391187	326.337116	129.832986	-419.253494	303.049843	532.663517	-418.955030	299.454202	447.618995	-405.653161	254.819176	371.594938	-408.544978	321.163338	443.511217	-372.197255	413.115929	134.366174	-350.254453	-146.101899	936.069953	-226.591963	9.164149	79.782807	-425.133541	9.404228	80.354838	-27.191298	
